<?xml version="1.0"?>
<svg xmlns="http://www.w3.org/2000/svg" id="Capa_1" enable-background="new 0 0 511.388 511.388" height="512px" viewBox="0 0 511.388 511.388" width="512px" class=""><g><g><path d="m40.336 238.39h133.726c9.327 0 16.914 7.587 16.914 16.914v33.812c0 4.142 3.358 7.5 7.5 7.5s7.5-3.358 7.5-7.5v-23.534l11.613-24.447c5.03-10.59 13.743-18.947 24.534-23.533l9.069-3.854c.289-.123.569-.263.84-.421l55.316-32.207c1.396-.813 2.492-2.055 3.126-3.541l14.69-34.466c2.613-6.129 8.606-10.09 15.342-10.09 11.196 0 21.183 6.692 25.441 17.047 1.721 4.186 2.593 8.603 2.593 13.128v10.121c0 4.142 3.357 7.5 7.5 7.5s7.5-3.358 7.5-7.5v-10.121c0-6.491-1.251-12.827-3.72-18.832-6.58-16.003-22.012-26.344-39.387-26.344-12.684 0-24.094 7.54-29.068 19.208l-13.715 32.178-52.759 30.718-8.635 3.669c-14.169 6.021-25.611 16.996-32.216 30.902l-2.276 4.79c-5.506-9.608-15.857-16.099-27.703-16.099h-133.725c-4.142 0-7.5 3.358-7.5 7.5s3.358 7.502 7.5 7.502z" data-original="#000000" class="active-path" data-old_color="#000000" fill="#FFFFFF"/><path d="m472.928 353.425c0-9.097-3.192-17.834-8.828-24.758 9.091-7.79 14.451-19.185 14.451-31.551 0-22.951-18.672-41.623-41.622-41.623h-69.348l7.928-17.354c4.69-10.268 7.354-21.197 7.917-32.483.207-4.137-2.979-7.658-7.116-7.865-4.152-.198-7.658 2.98-7.864 7.117-.469 9.382-2.683 18.466-6.581 26.999l-8.353 18.286c-2.037 4.461-1.671 9.587.98 13.712s7.162 6.588 12.065 6.588h70.371c14.68 0 26.622 11.943 26.622 26.623 0 10.148-5.648 19.277-14.741 23.823-2.351 1.175-3.915 3.496-4.122 6.116-.207 2.621.973 5.158 3.109 6.689 6.344 4.544 10.131 11.901 10.131 19.68 0 9.928-6.227 19.001-15.493 22.576-2.425.936-4.192 3.059-4.672 5.613-.479 2.554.396 5.174 2.316 6.925 4.555 4.155 7.167 10.07 7.167 16.229 0 10.233-7.242 19.251-17.219 21.442-4.322.949-7.46 4.858-7.46 9.354 0 3.469 1.901 6.673 4.965 8.364 6.878 3.792 11.236 11.009 11.374 18.835.103 5.792-2.121 11.302-6.261 15.517-4.272 4.349-10.224 6.843-16.327 6.843h-36.037c-4.143 0-7.5 3.358-7.5 7.5s3.357 7.5 7.5 7.5h36.037c10.102 0 19.953-4.13 27.027-11.331 6.983-7.108 10.733-16.447 10.559-26.294-.17-9.63-4.13-18.71-10.761-25.39 11.487-6.397 19.103-18.73 19.103-32.34 0-6.965-1.983-13.743-5.61-19.562 10.018-7.269 16.293-19.094 16.293-31.78z" data-original="#000000" class="active-path" data-old_color="#000000" fill="#FFFFFF"/><path d="m348.319 485.123h-108.073c-6.791 0-13.471-1.824-19.317-5.276l-14.953-8.826v-149.943c0-4.142-3.358-7.5-7.5-7.5s-7.5 3.358-7.5 7.5v158.396c0 9.327-7.587 16.914-16.914 16.914h-133.726c-4.142 0-7.5 3.358-7.5 7.5s3.358 7.5 7.5 7.5h133.726c14.722 0 27.141-10.023 30.809-23.601l8.433 4.977c8.155 4.814 17.472 7.358 26.942 7.358h108.073c4.143 0 7.5-3.358 7.5-7.5s-3.357-7.499-7.5-7.499z" data-original="#000000" class="active-path" data-old_color="#000000" fill="#FFFFFF"/><path d="m293.283 61.066c.201.32.264.716.172 1.083l-3.062 12.246c-1.599 6.393.641 12.876 5.842 16.922 5.203 4.045 12.039 4.617 17.84 1.493l14.723-7.928c.413-.223.91-.224 1.325 0l14.724 7.928c2.484 1.337 5.157 1.998 7.811 1.998 3.545 0 7.055-1.178 10.029-3.491 5.201-4.045 7.44-10.529 5.842-16.921l-3.062-12.247c-.092-.367-.029-.761.172-1.082l9.169-14.595c3.174-5.051 3.353-11.433.467-16.655-2.887-5.222-8.386-8.465-14.352-8.465h-9.252c-.512 0-.982-.279-1.228-.729l-6.588-12.076c-2.874-5.272-8.389-8.547-14.393-8.547h-.001c-6.004 0-11.52 3.274-14.396 8.545l-6.587 12.076c-.245.45-.716.729-1.228.729h-9.252c-5.966 0-11.466 3.244-14.352 8.465s-2.707 11.603.467 16.655zm3.492-23.994c.265-.479.677-.721 1.224-.721h9.252c6.004 0 11.52-3.274 14.396-8.546l6.587-12.076c.264-.483.677-.729 1.228-.729.55 0 .963.245 1.227.729l6.588 12.077c2.876 5.271 8.392 8.545 14.396 8.545h9.252c.547 0 .958.243 1.224.722.264.479.251.956-.04 1.419l-9.169 14.595c-2.363 3.762-3.101 8.391-2.023 12.7l3.062 12.246c.055.218.222.883-.497 1.442-.722.56-1.323.234-1.521.127l-14.723-7.927c-4.868-2.622-10.681-2.623-15.549 0l-14.723 7.928c-.198.106-.801.432-1.521-.127-.719-.559-.552-1.224-.497-1.442l3.062-12.248c1.076-4.31.339-8.938-2.023-12.698l-9.169-14.595c-.294-.465-.308-.942-.043-1.421z" data-original="#000000" class="active-path" data-old_color="#000000" fill="#FFFFFF"/><path d="m404.748 51.684c0 4.142 3.357 7.5 7.5 7.5h11.31c4.143 0 7.5-3.358 7.5-7.5s-3.357-7.5-7.5-7.5h-11.31c-4.143 0-7.5 3.358-7.5 7.5z" data-original="#000000" class="active-path" data-old_color="#000000" fill="#FFFFFF"/><path d="m400.762 25.189c1.756 0 3.52-.613 4.943-1.862l8.501-7.458c3.113-2.732 3.423-7.47.691-10.584s-7.471-3.423-10.584-.691l-8.501 7.458c-3.113 2.732-3.423 7.47-.691 10.584 1.483 1.69 3.557 2.553 5.641 2.553z" data-original="#000000" class="active-path" data-old_color="#000000" fill="#FFFFFF"/><path d="m395.813 91.316 8.501 7.458c1.424 1.249 3.188 1.862 4.943 1.862 2.084 0 4.158-.864 5.641-2.554 2.731-3.114 2.422-7.852-.691-10.584l-8.501-7.458c-3.113-2.731-7.853-2.422-10.584.691s-2.422 7.853.691 10.585z" data-original="#000000" class="active-path" data-old_color="#000000" fill="#FFFFFF"/><path d="m232.25 59.184h11.309c4.142 0 7.5-3.358 7.5-7.5s-3.358-7.5-7.5-7.5h-11.309c-4.142 0-7.5 3.358-7.5 7.5s3.358 7.5 7.5 7.5z" data-original="#000000" class="active-path" data-old_color="#000000" fill="#FFFFFF"/><path d="m241.6 15.869 8.501 7.458c1.424 1.249 3.187 1.862 4.943 1.862 2.084 0 4.158-.864 5.64-2.554 2.732-3.114 2.423-7.852-.69-10.584l-8.501-7.458c-3.113-2.73-7.852-2.422-10.584.691-2.732 3.114-2.423 7.853.691 10.585z" data-original="#000000" class="active-path" data-old_color="#000000" fill="#FFFFFF"/><path d="m250.101 80.041-8.501 7.459c-3.114 2.732-3.423 7.47-.691 10.584 1.483 1.69 3.556 2.554 5.641 2.554 1.756 0 3.52-.613 4.943-1.862l8.501-7.458c3.113-2.732 3.423-7.47.69-10.584-2.731-3.115-7.47-3.425-10.583-.693z" data-original="#000000" class="active-path" data-old_color="#000000" fill="#FFFFFF"/></g><script xmlns="" class="active-path" style=""/></g> </svg>
