<?xml version="1.0"?>
<svg xmlns="http://www.w3.org/2000/svg" xmlns:xlink="http://www.w3.org/1999/xlink" version="1.1" id="Layer_1" x="0px" y="0px" viewBox="0 0 512 512" style="enable-background:new 0 0 512 512;" xml:space="preserve" width="512px" height="512px" class=""><g><g>
	<g>
		<g>
			<path d="M197.12,57.016c4.497,1.51,9.301-0.913,10.795-5.385c5.931-17.724,21.333-30.592,40.183-33.579     c27.529-4.378,53.427,14.473,57.779,41.967c1.835,11.588-0.444,23.509-6.391,33.57c-2.398,4.062-1.058,9.293,2.995,11.691     c1.357,0.811,2.859,1.195,4.335,1.195c2.918,0,5.76-1.502,7.347-4.19c7.979-13.474,11.017-29.431,8.559-44.928     c-2.816-17.826-12.416-33.485-27.017-44.092C281.105,2.667,263.27-1.633,245.427,1.191     c-25.165,3.994-45.739,21.239-53.692,45.022C190.234,50.685,192.649,55.514,197.12,57.016z" data-original="#000000" class="active-path" data-old_color="#000000" fill="#FFFFFF"/>
			<path d="M337.638,91.627c23.339,11.213,37.828,34.825,37.828,61.628c0,20.702-9.242,40.055-25.353,53.103     c-3.661,2.961-4.232,8.337-1.263,11.998c1.69,2.091,4.147,3.166,6.639,3.166c1.886,0,3.789-0.623,5.359-1.903     c20.139-16.299,31.684-40.491,31.684-66.364c0-33.425-18.202-62.925-47.505-77.005c-4.275-2.057-9.352-0.247-11.383,3.994     C331.597,84.494,333.389,89.588,337.638,91.627z" data-original="#000000" class="active-path" data-old_color="#000000" fill="#FFFFFF"/>
			<path d="M216.653,86.03c4.651,0.794,9.071-2.287,9.882-6.921c0.819-4.642-2.278-9.071-6.921-9.89     c-22.468-3.968-45.09,1.058-63.761,14.131c-18.671,13.073-31.13,32.631-35.089,55.083c-1.604,9.105-1.801,18.167-0.589,26.957     c0.597,4.267,4.25,7.356,8.448,7.356c0.393,0,0.785-0.026,1.186-0.077c4.668-0.649,7.927-4.958,7.279-9.634     c-0.973-7.014-0.811-14.293,0.486-21.641C144.111,104.325,179.584,79.493,216.653,86.03z" data-original="#000000" class="active-path" data-old_color="#000000" fill="#FFFFFF"/>
			<path d="M341.513,43.022c2.611,0.009,5.205,0.222,7.723,0.631c20.847,3.302,43.298,23.134,43.298,58.863     c0,4.343,3.268,7.996,7.595,8.474c29.884,3.337,54.409,26.359,59.64,56.004c1.289,7.347,1.459,14.626,0.478,21.641     c-0.648,4.676,2.611,8.986,7.279,9.634c0.401,0.051,0.794,0.077,1.186,0.077c4.19,0,7.851-3.089,8.44-7.356     c1.229-8.789,1.024-17.852-0.58-26.957c-6.101-34.603-33.237-61.995-67.234-68.855c-3.012-41.139-31.172-64.222-57.421-68.378     c-3.354-0.538-6.827-0.828-10.3-0.845h-0.051c-4.685,0-8.508,3.789-8.533,8.491C333.005,39.156,336.811,42.996,341.513,43.022z" data-original="#000000" class="active-path" data-old_color="#000000" fill="#FFFFFF"/>
			<path d="M452.267,494.589h-76.8v-98.202c11.878,3.721,23.671,4.335,34.133,4.335c56.465,0,102.4-45.935,102.4-102.4     c0-45.611-30.626-86.136-74.47-98.543c-4.497-1.28-9.25,1.34-10.53,5.888c-1.28,4.531,1.348,9.25,5.879,10.539     c36.54,10.334,62.054,44.1,62.054,82.116c0,47.053-38.281,85.333-85.333,85.333c-17.306,0-28.518-2.185-38.682-7.552     c-2.654-1.391-5.837-1.306-8.397,0.247c-2.551,1.544-4.122,4.309-4.122,7.305v110.933h-25.6v-93.867     c0-4.71-3.814-8.533-8.533-8.533c-4.719,0-8.533,3.823-8.533,8.533v93.867h-25.6V369.302c10.769,3.789,22.272,5.82,34.133,5.82     c56.465,0,102.4-45.935,102.4-102.4c0-23.885-8.081-47.01-22.767-65.126c-2.953-3.652-8.32-4.224-11.998-1.254     c-3.661,2.97-4.224,8.346-1.254,12.006c12.22,15.078,18.953,34.389,18.953,54.374c0,47.053-38.281,85.333-85.333,85.333     c-32.205,0-61.338-17.835-76.023-46.541c-2.133-4.181-7.27-5.871-11.477-3.703c-4.198,2.142-5.854,7.287-3.712,11.486     c9.225,18.031,23.236,32.444,40.013,42.129v133.163h-34.133V358.055c0-2.995-1.57-5.76-4.122-7.305     c-2.569-1.544-5.76-1.638-8.388-0.247c-10.172,5.367-21.385,7.552-38.69,7.552c-47.053,0-85.333-38.281-85.333-85.333     c0-38.016,25.515-71.782,62.054-82.116c4.531-1.289,7.168-6.008,5.879-10.539c-1.289-4.54-5.999-7.151-10.53-5.888     c-43.853,12.407-74.47,52.932-74.47,98.543c0,56.465,45.935,102.4,102.4,102.4c10.462,0,22.255-0.614,34.133-4.335v123.802h-25.6     v-93.867c0-4.71-3.823-8.533-8.533-8.533s-8.533,3.823-8.533,8.533v93.867h-25.6V383.655c0-2.995-1.57-5.76-4.122-7.305     c-2.577-1.545-5.751-1.63-8.388-0.247c-10.172,5.367-21.385,7.552-38.69,7.552c-47.053,0-85.333-38.281-85.333-85.333     c0-38.016,25.515-71.782,62.046-82.116c4.54-1.289,7.177-6.007,5.888-10.539c-1.289-4.54-5.982-7.134-10.53-5.888     C30.618,212.186,0,252.711,0,298.322c0,56.465,45.935,102.4,102.4,102.4c10.462,0,22.255-0.614,34.133-4.335v98.202H93.867     c-4.71,0-8.533,3.823-8.533,8.533c0,4.71,3.823,8.533,8.533,8.533h358.4c4.719,0,8.533-3.823,8.533-8.533     C460.8,498.411,456.986,494.589,452.267,494.589z" data-original="#000000" class="active-path" data-old_color="#000000" fill="#FFFFFF"/>
			<path d="M43.29,198.345c0.393,0,0.785-0.026,1.186-0.077c4.668-0.648,7.927-4.958,7.279-9.634     c-0.973-7.014-0.811-14.293,0.486-21.641c5.222-29.645,29.747-52.668,59.639-56.004c4.318-0.478,7.586-4.13,7.586-8.474     c0-35.729,22.443-55.561,43.315-58.872c2.5-0.401,5.094-0.614,7.697-0.623c4.719-0.026,8.516-3.866,8.491-8.576     c-0.026-4.702-3.849-8.491-8.533-8.491h-0.051c-3.473,0.017-6.946,0.307-10.291,0.836c-26.257,4.164-54.426,27.247-57.429,68.386     c-33.997,6.861-61.133,34.253-67.234,68.855c-1.604,9.105-1.801,18.167-0.589,26.957     C35.439,195.256,39.091,198.345,43.29,198.345z" data-original="#000000" class="active-path" data-old_color="#000000" fill="#FFFFFF"/>
			<path d="M503.467,494.589H486.4c-4.719,0-8.533,3.823-8.533,8.533c0,4.71,3.814,8.533,8.533,8.533h17.067     c4.719,0,8.533-3.823,8.533-8.533C512,498.411,508.186,494.589,503.467,494.589z" data-original="#000000" class="active-path" data-old_color="#000000" fill="#FFFFFF"/>
			<path d="M59.733,494.589h-51.2c-4.71,0-8.533,3.823-8.533,8.533c0,4.71,3.823,8.533,8.533,8.533h51.2     c4.71,0,8.533-3.823,8.533-8.533C68.267,498.411,64.444,494.589,59.733,494.589z" data-original="#000000" class="active-path" data-old_color="#000000" fill="#FFFFFF"/>
		</g>
	</g>
</g><script xmlns="" class="active-path" style=""/></g> </svg>
